<svg xmlns="http://www.w3.org/2000/svg" xmlns:xlink="http://www.w3.org/1999/xlink" width="3134pt" height="476pt" viewBox="0.00 0.00 3133.93 476.00">
<g id="graph0" class="graph" transform="scale(1 1) rotate(0) translate(4 472)">
<title>Enlarge</title>
<polygon fill="#ffffff" stroke="transparent" points="-4,4 -4,-472 3129.9302,-472 3129.9302,4 -4,4"/>
<!-- 12504914539551188033 -->
<g id="node1" class="node">
<title>12504914539551188033</title>
<g id="a_node1"><a xlink:href="http://scholar.google.com/scholar?cluster=12504914539551188033&amp;hl=en&amp;as_sdt=0,5" xlink:title="JS Mbiti - 1990 - citated by 8203">
<ellipse fill="#917c6e" stroke="#917c6e" cx="1882.5517" cy="-450" rx="131.9872" ry="18"/>
<text text-anchor="middle" x="1882.5517" y="-445.8" font-family="Times,serif" font-size="14.00" fill="#ffffff">African religions &amp; philosophy</text>
</a>
</g>
</g>
<!-- 2516435261102596325 -->
<g id="node2" class="node">
<title>2516435261102596325</title>
<g id="a_node2"><a xlink:href="http://scholar.google.com/scholar?cluster=2516435261102596325&amp;hl=en&amp;as_sdt=2005&amp;sciodt=0,5" xlink:title="P Gilroy - 2013 - citated by 6738">
<ellipse fill="#92756d" stroke="#92756d" cx="1882.5517" cy="-378" rx="159.1592" ry="18"/>
<text text-anchor="middle" x="1882.5517" y="-373.8" font-family="Times,serif" font-size="14.00" fill="#ffffff">There ain't no black in the Union Jack</text>
</a>
</g>
</g>
<!-- 12504914539551188033&#45;&gt;2516435261102596325 -->
<g id="edge1" class="edge">
<title>12504914539551188033-&gt;2516435261102596325</title>
<path fill="none" stroke="#000000" d="M1882.5517,-431.8314C1882.5517,-424.131 1882.5517,-414.9743 1882.5517,-406.4166"/>
<polygon fill="#000000" stroke="#000000" points="1886.0518,-406.4132 1882.5517,-396.4133 1879.0518,-406.4133 1886.0518,-406.4132"/>
</g>
<!-- 17634302101398410853 -->
<g id="node3" class="node">
<title>17634302101398410853</title>
<g id="a_node3"><a xlink:href="http://scholar.google.com/scholar?cluster=17634302101398410853&amp;hl=en&amp;as_sdt=2005&amp;sciodt=0,5" xlink:title="D Held - 2000, Springer - citated by 11364">
<ellipse fill="#9c8763" stroke="#9c8763" cx="2608.5517" cy="-90" rx="226.2417" ry="18"/>
<text text-anchor="middle" x="2608.5517" y="-85.8" font-family="Times,serif" font-size="14.00" fill="#ffffff">Global transformations: Politics, economics and culture</text>
</a>
</g>
</g>
<!-- 2516435261102596325&#45;&gt;17634302101398410853 -->
<g id="edge2" class="edge">
<title>2516435261102596325-&gt;17634302101398410853</title>
<path fill="none" stroke="#000000" d="M1926.3313,-360.6329C2052.3708,-310.6337 2415.8875,-166.4288 2554.2258,-111.5508"/>
<polygon fill="#000000" stroke="#000000" points="2555.786,-114.6973 2563.7907,-107.7565 2553.2047,-108.1906 2555.786,-114.6973"/>
</g>
<!-- 8895020789468159235 -->
<g id="node4" class="node">
<title>8895020789468159235</title>
<g id="a_node4"><a xlink:href="http://scholar.google.com/scholar?cluster=8895020789468159235&amp;hl=en&amp;as_sdt=2005&amp;sciodt=0,5" xlink:title="HK Bhabha - 2012 - citated by 51316">
<ellipse fill="#5db1a2" stroke="#5db1a2" cx="1364.5517" cy="-306" rx="99.0195" ry="18"/>
<text text-anchor="middle" x="1364.5517" y="-301.8" font-family="Times,serif" font-size="14.00" fill="#ffffff">The location of culture</text>
</a>
</g>
</g>
<!-- 2516435261102596325&#45;&gt;8895020789468159235 -->
<g id="edge3" class="edge">
<title>2516435261102596325-&gt;8895020789468159235</title>
<path fill="none" stroke="#000000" d="M1781.7544,-363.9896C1686.4356,-350.7406 1544.7778,-331.0507 1453.5408,-318.3691"/>
<polygon fill="#000000" stroke="#000000" points="1453.8844,-314.8833 1443.4977,-316.9732 1452.9206,-321.8167 1453.8844,-314.8833"/>
</g>
<!-- 4751244568289669032 -->
<g id="node5" class="node">
<title>4751244568289669032</title>
<g id="a_node5"><a xlink:href="http://scholar.google.com/scholar?cluster=4751244568289669032&amp;hl=en&amp;as_sdt=2005&amp;sciodt=0,5" xlink:title="S Castles - 1998 - citated by 12903">
<ellipse fill="#bc8b43" stroke="#bc8b43" cx="2807.5517" cy="-18" rx="318.2569" ry="18"/>
<text text-anchor="middle" x="2807.5517" y="-13.8" font-family="Times,serif" font-size="14.00" fill="#ffffff">The age of migration: International population movements in the modern world</text>
</a>
</g>
</g>
<!-- 2516435261102596325&#45;&gt;4751244568289669032 -->
<g id="edge4" class="edge">
<title>2516435261102596325-&gt;4751244568289669032</title>
<path fill="none" stroke="#000000" d="M2030.3287,-371.261C2304.1006,-356.7873 2862.5517,-317.081 2862.5517,-234 2862.5517,-234 2862.5517,-234 2862.5517,-162 2862.5517,-121.1184 2859.3976,-109.6858 2843.5517,-72 2839.5325,-62.4411 2833.7505,-52.7762 2827.9926,-44.3168"/>
<polygon fill="#000000" stroke="#000000" points="2830.7222,-42.1157 2822.0759,-35.9926 2825.0166,-46.1711 2830.7222,-42.1157"/>
</g>
<!-- 15978994271464047581 -->
<g id="node6" class="node">
<title>15978994271464047581</title>
<g id="a_node6"><a xlink:href="http://scholar.google.com/scholar?cluster=15978994271464047581&amp;hl=en&amp;as_sdt=2005&amp;sciodt=0,5" xlink:title="A Brah - 1996 - citated by 7018">
<ellipse fill="#bb7644" stroke="#bb7644" cx="195.5517" cy="-18" rx="195.6035" ry="18"/>
<text text-anchor="middle" x="195.5517" y="-13.8" font-family="Times,serif" font-size="14.00" fill="#ffffff">Cartographies of diaspora: Contesting identities</text>
</a>
</g>
</g>
<!-- 2516435261102596325&#45;&gt;15978994271464047581 -->
<g id="edge5" class="edge">
<title>2516435261102596325-&gt;15978994271464047581</title>
<path fill="none" stroke="#000000" d="M1730.0207,-372.7735C1317.3143,-357.6295 209.5517,-309.9105 209.5517,-234 209.5517,-234 209.5517,-234 209.5517,-162 209.5517,-121.6868 204.049,-75.322 199.9433,-46.3387"/>
<polygon fill="#000000" stroke="#000000" points="203.3609,-45.5197 198.4526,-36.1304 196.4344,-46.5313 203.3609,-45.5197"/>
</g>
<!-- 12499822361791312923 -->
<g id="node7" class="node">
<title>12499822361791312923</title>
<g id="a_node7"><a xlink:href="http://scholar.google.com/scholar?cluster=12499822361791312923&amp;hl=en&amp;as_sdt=2005&amp;sciodt=0,5" xlink:title="R Cohen - 2008 - citated by 6949">
<ellipse fill="#c2763d" stroke="#c2763d" cx="1882.5517" cy="-18" rx="142.9414" ry="18"/>
<text text-anchor="middle" x="1882.5517" y="-13.8" font-family="Times,serif" font-size="14.00" fill="#ffffff">Global diasporas: An introduction</text>
</a>
</g>
</g>
<!-- 2516435261102596325&#45;&gt;12499822361791312923 -->
<g id="edge6" class="edge">
<title>2516435261102596325-&gt;12499822361791312923</title>
<path fill="none" stroke="#000000" d="M1882.5517,-359.8146C1882.5517,-332.4983 1882.5517,-279.25 1882.5517,-234 1882.5517,-234 1882.5517,-234 1882.5517,-162 1882.5517,-121.876 1882.5517,-75.4631 1882.5517,-46.4177"/>
<polygon fill="#000000" stroke="#000000" points="1886.0518,-46.1853 1882.5517,-36.1854 1879.0518,-46.1854 1886.0518,-46.1853"/>
</g>
<!-- 17634302101398410853&#45;&gt;4751244568289669032 -->
<g id="edge32" class="edge">
<title>17634302101398410853-&gt;4751244568289669032</title>
<path fill="none" stroke="#000000" d="M2657.2326,-72.3868C2684.8349,-62.4001 2719.5696,-49.8328 2748.6942,-39.2952"/>
<polygon fill="#000000" stroke="#000000" points="2750.1251,-42.4996 2758.3378,-35.8061 2747.7435,-35.9172 2750.1251,-42.4996"/>
</g>
<!-- 17726099032858617564 -->
<g id="node21" class="node">
<title>17726099032858617564</title>
<g id="a_node21"><a xlink:href="http://scholar.google.com/scholar?cluster=17726099032858617564&amp;hl=en&amp;as_sdt=2005&amp;sciodt=0,5" xlink:title="M Castells - 2011 - citated by 43475">
<ellipse fill="#9ead61" stroke="#9ead61" cx="2230.5517" cy="-18" rx="130.8009" ry="18"/>
<text text-anchor="middle" x="2230.5517" y="-13.8" font-family="Times,serif" font-size="14.00" fill="#ffffff">The rise of the network society</text>
</a>
</g>
</g>
<!-- 17634302101398410853&#45;&gt;17726099032858617564 -->
<g id="edge31" class="edge">
<title>17634302101398410853-&gt;17726099032858617564</title>
<path fill="none" stroke="#000000" d="M2521.3563,-73.3913C2460.1188,-61.7271 2378.5573,-46.1915 2317.3974,-34.542"/>
<polygon fill="#000000" stroke="#000000" points="2317.8581,-31.0669 2307.3797,-32.6339 2316.5482,-37.9433 2317.8581,-31.0669"/>
</g>
<!-- 14934251741208384689 -->
<g id="node10" class="node">
<title>14934251741208384689</title>
<g id="a_node10"><a xlink:href="http://scholar.google.com/scholar?cluster=14934251741208384689&amp;hl=en&amp;as_sdt=0,5" xlink:title="EW Said - 1979 - citated by 64632">
<ellipse fill="#6ab695" stroke="#6ab695" cx="865.5517" cy="-234" rx="56.7542" ry="18"/>
<text text-anchor="middle" x="865.5517" y="-229.8" font-family="Times,serif" font-size="14.00" fill="#ffffff">Orientalism</text>
</a>
</g>
</g>
<!-- 8895020789468159235&#45;&gt;14934251741208384689 -->
<g id="edge8" class="edge">
<title>8895020789468159235-&gt;14934251741208384689</title>
<path fill="none" stroke="#000000" d="M1286.8569,-294.7895C1187.6815,-280.4796 1018.1023,-256.0113 927.2776,-242.9063"/>
<polygon fill="#000000" stroke="#000000" points="927.5334,-239.4071 917.136,-241.443 926.5337,-246.3353 927.5334,-239.4071"/>
</g>
<!-- 565973843446095528 -->
<g id="node13" class="node">
<title>565973843446095528</title>
<g id="a_node13"><a xlink:href="http://scholar.google.com/scholar?cluster=565973843446095528&amp;hl=en&amp;as_sdt=2005&amp;sciodt=0,5" xlink:title="D Massey - 2005 - citated by 10949">
<ellipse fill="#c0863f" stroke="#c0863f" cx="1483.5517" cy="-18" rx="48.1138" ry="18"/>
<text text-anchor="middle" x="1483.5517" y="-13.8" font-family="Times,serif" font-size="14.00" fill="#ffffff">For space</text>
</a>
</g>
</g>
<!-- 8895020789468159235&#45;&gt;565973843446095528 -->
<g id="edge7" class="edge">
<title>8895020789468159235-&gt;565973843446095528</title>
<path fill="none" stroke="#000000" d="M1363.5203,-287.6952C1362.4606,-256.8014 1363.233,-192.9009 1383.5517,-144 1400.3763,-103.5085 1434.1786,-65.2898 1457.8048,-41.7869"/>
<polygon fill="#000000" stroke="#000000" points="1460.3676,-44.1764 1465.0836,-34.689 1455.4805,-39.1647 1460.3676,-44.1764"/>
</g>
<!-- 13512913374545888922 -->
<g id="node8" class="node">
<title>13512913374545888922</title>
<g id="a_node8"><a xlink:href="http://scholar.google.com/scholar?cluster=13512913374545888922&amp;hl=en&amp;as_sdt=0,5" xlink:title="B Anderson - 2006 - citated by 108516">
<ellipse fill="#56c0a9" stroke="#56c0a9" cx="700.5517" cy="-162" rx="302.6169" ry="18"/>
<text text-anchor="middle" x="700.5517" y="-157.8" font-family="Times,serif" font-size="14.00" fill="#ffffff">Imagined communities: Reflections on the origin and spread of nationalism</text>
</a>
</g>
</g>
<!-- 1770780549409130706 -->
<g id="node11" class="node">
<title>1770780549409130706</title>
<g id="a_node11"><a xlink:href="http://scholar.google.com/scholar?cluster=1770780549409130706&amp;hl=en&amp;as_sdt=0,5" xlink:title="S Hall - 1990, warwick.ac.uk - citated by 12835">
<ellipse fill="#9b8b64" stroke="#9b8b64" cx="1044.5517" cy="-90" rx="126.1846" ry="18"/>
<text text-anchor="middle" x="1044.5517" y="-85.8" font-family="Times,serif" font-size="14.00" fill="#ffffff">Cultural identity and diaspora</text>
</a>
</g>
</g>
<!-- 13512913374545888922&#45;&gt;1770780549409130706 -->
<g id="edge14" class="edge">
<title>13512913374545888922-&gt;1770780549409130706</title>
<path fill="none" stroke="#000000" d="M783.3861,-144.6626C838.0363,-133.2242 909.2864,-118.3113 963.5583,-106.9521"/>
<polygon fill="#000000" stroke="#000000" points="964.4158,-110.3486 973.4866,-104.8741 962.9817,-103.497 964.4158,-110.3486"/>
</g>
<!-- 8359082072951310061 -->
<g id="node14" class="node">
<title>8359082072951310061</title>
<g id="a_node14"><a xlink:href="http://scholar.google.com/scholar?cluster=8359082072951310061&amp;hl=en&amp;as_sdt=0,5" xlink:title="EW Said - 2012 - citated by 28214">
<ellipse fill="#97a268" stroke="#97a268" cx="577.5517" cy="-90" rx="104.8118" ry="18"/>
<text text-anchor="middle" x="577.5517" y="-85.8" font-family="Times,serif" font-size="14.00" fill="#ffffff">Culture and imperialism</text>
</a>
</g>
</g>
<!-- 13512913374545888922&#45;&gt;8359082072951310061 -->
<g id="edge15" class="edge">
<title>13512913374545888922-&gt;8359082072951310061</title>
<path fill="none" stroke="#000000" d="M669.8309,-144.0171C653.5919,-134.5113 633.4952,-122.7474 616.2064,-112.6271"/>
<polygon fill="#000000" stroke="#000000" points="617.8549,-109.5366 607.4566,-107.5053 614.3187,-115.5777 617.8549,-109.5366"/>
</g>
<!-- 881176282422406888 -->
<g id="node16" class="node">
<title>881176282422406888</title>
<g id="a_node16"><a xlink:href="http://scholar.google.com/scholar?cluster=881176282422406888&amp;hl=en&amp;as_sdt=2005&amp;sciodt=0,5" xlink:title="M Castells - 2011 - citated by 12395">
<ellipse fill="#c18a3e" stroke="#c18a3e" cx="359.5517" cy="-90" rx="94.9474" ry="18"/>
<text text-anchor="middle" x="359.5517" y="-85.8" font-family="Times,serif" font-size="14.00" fill="#ffffff">The power of identity</text>
</a>
</g>
</g>
<!-- 13512913374545888922&#45;&gt;881176282422406888 -->
<g id="edge12" class="edge">
<title>13512913374545888922-&gt;881176282422406888</title>
<path fill="none" stroke="#000000" d="M618.4398,-144.6626C561.9471,-132.7345 487.5603,-117.0282 433.0249,-105.5134"/>
<polygon fill="#000000" stroke="#000000" points="433.5892,-102.0554 423.0818,-103.414 432.143,-108.9044 433.5892,-102.0554"/>
</g>
<!-- 3767129554966147446 -->
<g id="node17" class="node">
<title>3767129554966147446</title>
<g id="a_node17"><a xlink:href="http://scholar.google.com/scholar?cluster=3767129554966147446&amp;hl=en&amp;as_sdt=2005&amp;sciodt=0,5" xlink:title="M Omi - 2014 - citated by 13931">
<ellipse fill="#b38d4c" stroke="#b38d4c" cx="563.5517" cy="-18" rx="154.5291" ry="18"/>
<text text-anchor="middle" x="563.5517" y="-13.8" font-family="Times,serif" font-size="14.00" fill="#ffffff">Racial formation in the United States</text>
</a>
</g>
</g>
<!-- 13512913374545888922&#45;&gt;3767129554966147446 -->
<g id="edge13" class="edge">
<title>13512913374545888922-&gt;3767129554966147446</title>
<path fill="none" stroke="#000000" d="M703.7795,-143.8719C706.2262,-124.2107 706.9339,-92.8497 691.5517,-72 680.3159,-56.7704 663.942,-45.8036 646.6355,-37.9173"/>
<polygon fill="#000000" stroke="#000000" points="647.5265,-34.4951 636.9516,-33.8454 644.8132,-40.9479 647.5265,-34.4951"/>
</g>
<!-- 10247440047903882619 -->
<g id="node9" class="node">
<title>10247440047903882619</title>
<g id="a_node9"><a xlink:href="http://scholar.google.com/scholar?cluster=10247440047903882619&amp;hl=en&amp;as_sdt=0,5" xlink:title="P Gilroy - 1993 - citated by 17508">
<ellipse fill="#8a9575" stroke="#8a9575" cx="1623.5517" cy="-162" rx="230.8908" ry="18"/>
<text text-anchor="middle" x="1623.5517" y="-157.8" font-family="Times,serif" font-size="14.00" fill="#ffffff">The black Atlantic: Modernity and double consciousness</text>
</a>
</g>
</g>
<!-- 10247440047903882619&#45;&gt;17634302101398410853 -->
<g id="edge16" class="edge">
<title>10247440047903882619-&gt;17634302101398410853</title>
<path fill="none" stroke="#000000" d="M1794.8456,-149.8905C1946.8713,-139.0898 2175.0172,-122.7506 2373.5517,-108 2393.8071,-106.4951 2415.0429,-104.897 2436.1172,-103.2985"/>
<polygon fill="#000000" stroke="#000000" points="2436.407,-106.7867 2446.1133,-102.5394 2435.8769,-99.8068 2436.407,-106.7867"/>
</g>
<!-- 10247440047903882619&#45;&gt;12499822361791312923 -->
<g id="edge20" class="edge">
<title>10247440047903882619-&gt;12499822361791312923</title>
<path fill="none" stroke="#000000" d="M1655.8306,-144.0535C1702.9066,-117.88 1790.376,-69.2483 1841.8196,-40.6464"/>
<polygon fill="#000000" stroke="#000000" points="1843.6405,-43.6387 1850.6797,-35.7204 1840.239,-37.5207 1843.6405,-43.6387"/>
</g>
<!-- 15066938082645101981 -->
<g id="node18" class="node">
<title>15066938082645101981</title>
<g id="a_node18"><a xlink:href="http://scholar.google.com/scholar?cluster=15066938082645101981&amp;hl=en&amp;as_sdt=2005&amp;sciodt=0,5" xlink:title="PH Collins - 2002 - citated by 30435">
<ellipse fill="#c0a43f" stroke="#c0a43f" cx="1076.5517" cy="-18" rx="340.7851" ry="18"/>
<text text-anchor="middle" x="1076.5517" y="-13.8" font-family="Times,serif" font-size="14.00" fill="#ffffff">Black feminist thought: Knowledge, consciousness, and the politics of empowerment</text>
</a>
</g>
</g>
<!-- 10247440047903882619&#45;&gt;15066938082645101981 -->
<g id="edge17" class="edge">
<title>10247440047903882619-&gt;15066938082645101981</title>
<path fill="none" stroke="#000000" d="M1574.8421,-144.3448C1519.7306,-124.8127 1427.0278,-93.2911 1345.5517,-72 1293.7057,-58.4517 1235.4787,-46.3827 1186.4914,-37.1093"/>
<polygon fill="#000000" stroke="#000000" points="1186.9776,-33.6395 1176.5033,-35.2329 1185.6851,-40.5191 1186.9776,-33.6395"/>
</g>
<!-- 9843314062265294473 -->
<g id="node19" class="node">
<title>9843314062265294473</title>
<g id="a_node19"><a xlink:href="http://scholar.google.com/scholar?cluster=9843314062265294473&amp;hl=en&amp;as_sdt=2005&amp;sciodt=0,5" xlink:title="J Butler - 2004 - citated by 10501">
<ellipse fill="#cb8434" stroke="#cb8434" cx="1262.5517" cy="-90" rx="73.5435" ry="18"/>
<text text-anchor="middle" x="1262.5517" y="-85.8" font-family="Times,serif" font-size="14.00" fill="#ffffff">Undoing gender</text>
</a>
</g>
</g>
<!-- 10247440047903882619&#45;&gt;9843314062265294473 -->
<g id="edge18" class="edge">
<title>10247440047903882619-&gt;9843314062265294473</title>
<path fill="none" stroke="#000000" d="M1539.3689,-145.2101C1475.5567,-132.483 1389.0312,-115.2258 1329.8019,-103.4128"/>
<polygon fill="#000000" stroke="#000000" points="1330.2977,-99.9428 1319.8062,-101.4192 1328.9285,-106.8076 1330.2977,-99.9428"/>
</g>
<!-- 5899184071223871743 -->
<g id="node20" class="node">
<title>5899184071223871743</title>
<g id="a_node20"><a xlink:href="http://scholar.google.com/scholar?cluster=5899184071223871743&amp;hl=en&amp;as_sdt=2005&amp;sciodt=0,5" xlink:title="S Hall - 1996, academia.edu - citated by 9800">
<ellipse fill="#be8241" stroke="#be8241" cx="1635.5517" cy="-18" rx="86.2599" ry="18"/>
<text text-anchor="middle" x="1635.5517" y="-13.8" font-family="Times,serif" font-size="14.00" fill="#ffffff">Who needs identity</text>
</a>
</g>
</g>
<!-- 10247440047903882619&#45;&gt;5899184071223871743 -->
<g id="edge19" class="edge">
<title>10247440047903882619-&gt;5899184071223871743</title>
<path fill="none" stroke="#000000" d="M1625.0716,-143.7623C1627.1183,-119.201 1630.7811,-75.2474 1633.1889,-46.3541"/>
<polygon fill="#000000" stroke="#000000" points="1636.7016,-46.3458 1634.0443,-36.0896 1629.7258,-45.7644 1636.7016,-46.3458"/>
</g>
<!-- 14934251741208384689&#45;&gt;13512913374545888922 -->
<g id="edge11" class="edge">
<title>14934251741208384689-&gt;13512913374545888922</title>
<path fill="none" stroke="#000000" d="M832.1615,-219.4297C808.8464,-209.2558 777.3037,-195.4918 750.9431,-183.989"/>
<polygon fill="#000000" stroke="#000000" points="752.0558,-180.6558 741.4906,-179.8642 749.2562,-187.0716 752.0558,-180.6558"/>
</g>
<!-- 14934251741208384689&#45;&gt;1770780549409130706 -->
<g id="edge10" class="edge">
<title>14934251741208384689-&gt;1770780549409130706</title>
<path fill="none" stroke="#000000" d="M917.1318,-226.3814C948.4325,-219.2736 987.1161,-205.7023 1012.5517,-180 1028.9655,-163.4142 1037.0033,-137.8707 1040.914,-118.2276"/>
<polygon fill="#000000" stroke="#000000" points="1044.3761,-118.7474 1042.6472,-108.2946 1037.4803,-117.544 1044.3761,-118.7474"/>
</g>
<!-- 14934251741208384689&#45;&gt;881176282422406888 -->
<g id="edge9" class="edge">
<title>14934251741208384689-&gt;881176282422406888</title>
<path fill="none" stroke="#000000" d="M809.4628,-231.0411C690.3943,-224.2792 420.597,-206.2281 388.5517,-180 370.2695,-165.0365 363.3777,-138.4543 360.8474,-118.0456"/>
<polygon fill="#000000" stroke="#000000" points="364.3255,-117.6492 359.8846,-108.03 357.3577,-118.3191 364.3255,-117.6492"/>
</g>
<!-- 1770780549409130706&#45;&gt;15978994271464047581 -->
<g id="edge29" class="edge">
<title>1770780549409130706-&gt;15978994271464047581</title>
<path fill="none" stroke="#000000" d="M935.2651,-81.0006C806.9673,-70.4008 587.7809,-52.1835 399.5517,-36 382.4509,-34.5297 364.5452,-32.9738 346.7464,-31.417"/>
<polygon fill="#000000" stroke="#000000" points="346.5533,-27.8867 336.286,-30.5008 345.9425,-34.86 346.5533,-27.8867"/>
</g>
<!-- 1770780549409130706&#45;&gt;12499822361791312923 -->
<g id="edge30" class="edge">
<title>1770780549409130706-&gt;12499822361791312923</title>
<path fill="none" stroke="#000000" d="M1133.7722,-77.2417C1149.0248,-75.3078 1164.7282,-73.4708 1179.5517,-72 1423.7636,-47.7691 1486.1686,-58.4379 1730.5517,-36 1743.7538,-34.7879 1757.5831,-33.3645 1771.2937,-31.8584"/>
<polygon fill="#000000" stroke="#000000" points="1771.6949,-35.3354 1781.2455,-30.7488 1770.9192,-28.3785 1771.6949,-35.3354"/>
</g>
<!-- 1770780549409130706&#45;&gt;565973843446095528 -->
<g id="edge27" class="edge">
<title>1770780549409130706-&gt;565973843446095528</title>
<path fill="none" stroke="#000000" d="M1135.9378,-77.468C1244.4073,-62.5356 1412.488,-39.1916 1426.5517,-36 1430.3705,-35.1334 1434.302,-34.1312 1438.2299,-33.0521"/>
<polygon fill="#000000" stroke="#000000" points="1439.2888,-36.3894 1447.9202,-30.2453 1437.3412,-29.6658 1439.2888,-36.3894"/>
</g>
<!-- 1770780549409130706&#45;&gt;5899184071223871743 -->
<g id="edge28" class="edge">
<title>1770780549409130706-&gt;5899184071223871743</title>
<path fill="none" stroke="#000000" d="M1135.2721,-77.4841C1150.0612,-75.5646 1165.2252,-73.669 1179.5517,-72 1339.7089,-53.3424 1380.9647,-59.0306 1540.5517,-36 1548.0866,-34.9126 1555.9333,-33.6456 1563.7448,-32.2967"/>
<polygon fill="#000000" stroke="#000000" points="1564.3584,-35.7426 1573.5944,-30.5517 1563.1372,-28.8499 1564.3584,-35.7426"/>
</g>
<!-- 7804872867139915337 -->
<g id="node12" class="node">
<title>7804872867139915337</title>
<g id="a_node12"><a xlink:href="http://scholar.google.com/scholar?cluster=7804872867139915337&amp;hl=en&amp;as_sdt=0,5" xlink:title="F Fanon - 2008 - citated by 21906">
<ellipse fill="#a29b5d" stroke="#a29b5d" cx="1164.5517" cy="-162" rx="104.8157" ry="18"/>
<text text-anchor="middle" x="1164.5517" y="-157.8" font-family="Times,serif" font-size="14.00" fill="#ffffff">Black skin, white masks</text>
</a>
</g>
</g>
<!-- 7804872867139915337&#45;&gt;1770780549409130706 -->
<g id="edge25" class="edge">
<title>7804872867139915337-&gt;1770780549409130706</title>
<path fill="none" stroke="#000000" d="M1135.5031,-144.5708C1119.5548,-135.0018 1099.5889,-123.0223 1082.4299,-112.7269"/>
<polygon fill="#000000" stroke="#000000" points="1084.1245,-109.662 1073.7488,-107.5182 1080.523,-115.6645 1084.1245,-109.662"/>
</g>
<!-- 7804872867139915337&#45;&gt;3767129554966147446 -->
<g id="edge24" class="edge">
<title>7804872867139915337-&gt;3767129554966147446</title>
<path fill="none" stroke="#000000" d="M1095.9064,-148.3509C1044.4691,-137.9083 972.4254,-122.8262 909.5517,-108 813.6816,-85.3929 703.7109,-56.229 633.9627,-37.3249"/>
<polygon fill="#000000" stroke="#000000" points="634.538,-33.8545 623.9703,-34.6123 632.704,-40.61 634.538,-33.8545"/>
</g>
<!-- 7804872867139915337&#45;&gt;9843314062265294473 -->
<g id="edge26" class="edge">
<title>7804872867139915337-&gt;9843314062265294473</title>
<path fill="none" stroke="#000000" d="M1188.5252,-144.3868C1201.2892,-135.0092 1217.15,-123.3564 1230.9125,-113.2452"/>
<polygon fill="#000000" stroke="#000000" points="1233.1774,-115.9243 1239.1639,-107.1829 1229.0328,-110.2831 1233.1774,-115.9243"/>
</g>
<!-- 8359082072951310061&#45;&gt;15978994271464047581 -->
<g id="edge23" class="edge">
<title>8359082072951310061-&gt;15978994271464047581</title>
<path fill="none" stroke="#000000" d="M506.5957,-76.6261C446.0531,-65.2149 358.449,-48.7031 291.6286,-36.1087"/>
<polygon fill="#000000" stroke="#000000" points="291.984,-32.6142 281.5088,-34.2013 290.6874,-39.493 291.984,-32.6142"/>
</g>
<!-- 8359082072951310061&#45;&gt;3767129554966147446 -->
<g id="edge21" class="edge">
<title>8359082072951310061-&gt;3767129554966147446</title>
<path fill="none" stroke="#000000" d="M574.019,-71.8314C572.5217,-64.131 570.7412,-54.9743 569.0772,-46.4166"/>
<polygon fill="#000000" stroke="#000000" points="572.4765,-45.5614 567.1321,-36.4133 565.6052,-46.8975 572.4765,-45.5614"/>
</g>
<!-- 8359082072951310061&#45;&gt;15066938082645101981 -->
<g id="edge22" class="edge">
<title>8359082072951310061-&gt;15066938082645101981</title>
<path fill="none" stroke="#000000" d="M658.0018,-78.392C736.5979,-67.0515 857.4488,-49.614 949.1227,-36.3866"/>
<polygon fill="#000000" stroke="#000000" points="949.6264,-39.8502 959.0241,-34.9579 948.6267,-32.922 949.6264,-39.8502"/>
</g>
<!-- 1285209366342978324 -->
<g id="node15" class="node">
<title>1285209366342978324</title>
<g id="a_node15"><a xlink:href="https://books.google.com/books?hl=en&amp;lr=&amp;id=4LVeJT7gghMC&amp;oi=fnd&amp;pg=PP11&amp;dq=related:A932uUd2cXsJ:scholar.google.com/&amp;ots=6OYJpAX9Di&amp;sig=5uz66BtH4aBBcIcdes960bS4wxg" xlink:title="A Appadurai - 1996 - citated by 34929">
<ellipse fill="#a7a858" stroke="#a7a858" cx="2137.5517" cy="-90" rx="227.3895" ry="18"/>
<text text-anchor="middle" x="2137.5517" y="-85.8" font-family="Times,serif" font-size="14.00" fill="#ffffff">Modernity al large: cultural dimensions of globalization</text>
</a>
</g>
</g>
<!-- 1285209366342978324&#45;&gt;17726099032858617564 -->
<g id="edge33" class="edge">
<title>1285209366342978324-&gt;17726099032858617564</title>
<path fill="none" stroke="#000000" d="M2161.0196,-71.8314C2172.6727,-62.8096 2186.9077,-51.789 2199.4556,-42.0745"/>
<polygon fill="#000000" stroke="#000000" points="2201.649,-44.8027 2207.4136,-35.9134 2197.3637,-39.2676 2201.649,-44.8027"/>
</g>
</g>
</svg>