<svg xmlns="http://www.w3.org/2000/svg" xmlns:xlink="http://www.w3.org/1999/xlink" width="998pt" height="332pt" viewBox="0.00 0.00 998.02 332.00">
<g id="graph0" class="graph" transform="scale(1 1) rotate(0) translate(4 328)">
<title>Enlarge</title>
<polygon fill="#ffffff" stroke="transparent" points="-4,4 -4,-328 994.0159,-328 994.0159,4 -4,4"/>
<!-- 2370457352906405039 -->
<g id="node1" class="node">
<title>2370457352906405039</title>
<g id="a_node1"><a xlink:href="http://scholar.google.com/scholar?cluster=2370457352906405039&amp;hl=en&amp;as_sdt=0,5" xlink:title="L Brillouin - 2013 - citated by 4239">
<polygon fill="#7d6482" stroke="#7d6482" points="192.1653,-252 -.0551,-252 -.0551,-216 192.1653,-216 192.1653,-252"/>
<text text-anchor="middle" x="96.0551" y="-229.8" font-family="Times,serif" font-size="14.00" fill="#ffffff">Science and information theory</text>
</a>
</g>
</g>
<!-- 8002773586739194411 -->
<g id="node3" class="node">
<title>8002773586739194411</title>
<g id="a_node3"><a xlink:href="http://scholar.google.com/scholar?cluster=8002773586739194411&amp;hl=en&amp;as_sdt=0,5" xlink:title="S Kullback - 1997 - citated by 11092">
<polygon fill="#788687" stroke="#788687" points="318.6202,-180 121.49,-180 121.49,-144 318.6202,-144 318.6202,-180"/>
<text text-anchor="middle" x="220.0551" y="-157.8" font-family="Times,serif" font-size="14.00" fill="#ffffff">Information theory and statistics</text>
</a>
</g>
</g>
<!-- 2370457352906405039&#45;&gt;8002773586739194411 -->
<g id="edge1" class="edge">
<title>2370457352906405039-&gt;8002773586739194411</title>
<path fill="none" stroke="#000000" d="M127.3455,-215.8314C143.3528,-206.5368 163.0137,-195.1208 180.1045,-185.1971"/>
<polygon fill="#000000" stroke="#000000" points="181.8843,-188.211 188.7747,-180.1628 178.3693,-182.1575 181.8843,-188.211"/>
</g>
<!-- 11741766459931279286 -->
<g id="node2" class="node">
<title>11741766459931279286</title>
<g id="a_node2"><a xlink:href="http://scholar.google.com/scholar?cluster=11741766459931279286&amp;hl=en&amp;as_sdt=0,5" xlink:title="ET Jaynes - 1957, APS - citated by 13367">
<polygon fill="#5d8ca2" stroke="#5d8ca2" points="512.3646,-252 247.7456,-252 247.7456,-216 512.3646,-216 512.3646,-252"/>
<text text-anchor="middle" x="380.0551" y="-229.8" font-family="Times,serif" font-size="14.00" fill="#ffffff">Information theory and statistical mechanics</text>
</a>
</g>
</g>
<!-- 11741766459931279286&#45;&gt;8002773586739194411 -->
<g id="edge2" class="edge">
<title>11741766459931279286-&gt;8002773586739194411</title>
<path fill="none" stroke="#000000" d="M339.6803,-215.8314C318.3764,-206.2446 292.0568,-194.4008 269.534,-184.2655"/>
<polygon fill="#000000" stroke="#000000" points="270.695,-180.95 260.1395,-180.038 267.8225,-187.3334 270.695,-180.95"/>
</g>
<!-- 14459559319851391154 -->
<g id="node8" class="node">
<title>14459559319851391154</title>
<g id="a_node8"><a xlink:href="http://scholar.google.com/scholar?cluster=14459559319851391154&amp;hl=en&amp;as_sdt=2005&amp;sciodt=0,5" xlink:title="KP Burnham - 1998, Springer - citated by 49294">
<polygon fill="#7cb083" stroke="#7cb083" points="497.4929,-36 196.6173,-36 196.6173,0 497.4929,0 497.4929,-36"/>
<text text-anchor="middle" x="347.0551" y="-13.8" font-family="Times,serif" font-size="14.00" fill="#ffffff">Practical use of the information-theoretic approach</text>
</a>
</g>
</g>
<!-- 11741766459931279286&#45;&gt;14459559319851391154 -->
<g id="edge3" class="edge">
<title>11741766459931279286-&gt;14459559319851391154</title>
<path fill="none" stroke="#000000" d="M377.2983,-215.9555C371.5476,-178.3144 358.2364,-91.1867 351.3519,-46.1246"/>
<polygon fill="#000000" stroke="#000000" points="354.7975,-45.5017 349.8273,-36.1451 347.8777,-46.559 354.7975,-45.5017"/>
</g>
<!-- 8002773586739194411&#45;&gt;14459559319851391154 -->
<g id="edge8" class="edge">
<title>8002773586739194411-&gt;14459559319851391154</title>
<path fill="none" stroke="#000000" d="M236.1397,-143.7623C258.4694,-118.4436 298.9731,-72.5182 324.367,-43.7251"/>
<polygon fill="#000000" stroke="#000000" points="327.1115,-45.9046 331.1011,-36.0896 321.8616,-41.2745 327.1115,-45.9046"/>
</g>
<!-- 4947351087640734691 -->
<g id="node9" class="node">
<title>4947351087640734691</title>
<g id="a_node9"><a xlink:href="http://scholar.google.com/scholar?cluster=4947351087640734691&amp;hl=en&amp;as_sdt=2005&amp;sciodt=0,5" xlink:title="H Akaike - 1998, Springer - citated by 24974">
<polygon fill="#959f6a" stroke="#959f6a" points="804.8548,-108 375.2554,-108 375.2554,-72 804.8548,-72 804.8548,-108"/>
<text text-anchor="middle" x="590.0551" y="-85.8" font-family="Times,serif" font-size="14.00" fill="#ffffff">Information theory and an extension of the maximum likelihood principle</text>
</a>
</g>
</g>
<!-- 8002773586739194411&#45;&gt;4947351087640734691 -->
<g id="edge7" class="edge">
<title>8002773586739194411-&gt;4947351087640734691</title>
<path fill="none" stroke="#000000" d="M312.9441,-143.9243C366.0452,-133.5911 432.7393,-120.6128 487.3904,-109.978"/>
<polygon fill="#000000" stroke="#000000" points="488.3015,-113.3664 497.4488,-108.0207 486.9644,-106.4953 488.3015,-113.3664"/>
</g>
<!-- 7979693317780361188 -->
<g id="node4" class="node">
<title>7979693317780361188</title>
<g id="a_node4"><a xlink:href="http://scholar.google.com/scholar?cluster=7979693317780361188&amp;hl=en&amp;as_sdt=0,5" xlink:title="RG Gallager - 1968, Springer - citated by 8506">
<polygon fill="#9a7d65" stroke="#9a7d65" points="989.9767,-324 708.1335,-324 708.1335,-288 989.9767,-288 989.9767,-324"/>
<text text-anchor="middle" x="849.0551" y="-301.8" font-family="Times,serif" font-size="14.00" fill="#ffffff">Information theory and reliable communication</text>
</a>
</g>
</g>
<!-- 5322157415978095001 -->
<g id="node5" class="node">
<title>5322157415978095001</title>
<g id="a_node5"><a xlink:href="http://scholar.google.com/scholar?cluster=5322157415978095001&amp;hl=en&amp;as_sdt=0,5" xlink:title="DJC MacKay - 2003 - citated by 10921">
<polygon fill="#9c8663" stroke="#9c8663" points="910.7273,-252 593.3829,-252 593.3829,-216 910.7273,-216 910.7273,-252"/>
<text text-anchor="middle" x="752.0551" y="-229.8" font-family="Times,serif" font-size="14.00" fill="#ffffff">Information theory, inference and learning algorithms</text>
</a>
</g>
</g>
<!-- 7979693317780361188&#45;&gt;5322157415978095001 -->
<g id="edge13" class="edge">
<title>7979693317780361188-&gt;5322157415978095001</title>
<path fill="none" stroke="#000000" d="M824.5779,-287.8314C812.5156,-278.8779 797.8011,-267.9558 784.7865,-258.2955"/>
<polygon fill="#000000" stroke="#000000" points="786.6403,-255.3127 776.5245,-252.1628 782.4681,-260.9335 786.6403,-255.3127"/>
</g>
<!-- 517179926353339293 -->
<g id="node6" class="node">
<title>517179926353339293</title>
<g id="a_node6"><a xlink:href="http://scholar.google.com/scholar?cluster=517179926353339293&amp;hl=en&amp;as_sdt=0,5&amp;scioq=information+theory" xlink:title="CE Shannon - 2001, dl.acm.org - citated by 50954">
<polygon fill="#7cb183" stroke="#7cb183" points="690.1015,-324 440.0087,-324 440.0087,-288 690.1015,-288 690.1015,-324"/>
<text text-anchor="middle" x="565.0551" y="-301.8" font-family="Times,serif" font-size="14.00" fill="#ffffff">A mathematical theory of communication</text>
</a>
</g>
</g>
<!-- 517179926353339293&#45;&gt;11741766459931279286 -->
<g id="edge10" class="edge">
<title>517179926353339293-&gt;11741766459931279286</title>
<path fill="none" stroke="#000000" d="M518.3718,-287.8314C493.2992,-278.0734 462.2184,-265.977 435.8742,-255.7242"/>
<polygon fill="#000000" stroke="#000000" points="436.9913,-252.4033 426.4027,-252.038 434.4524,-258.9266 436.9913,-252.4033"/>
</g>
<!-- 517179926353339293&#45;&gt;5322157415978095001 -->
<g id="edge11" class="edge">
<title>517179926353339293-&gt;5322157415978095001</title>
<path fill="none" stroke="#000000" d="M612.2431,-287.8314C637.5867,-278.0734 669.0036,-265.977 695.6325,-255.7242"/>
<polygon fill="#000000" stroke="#000000" points="697.1319,-258.8974 705.2064,-252.038 694.6166,-252.3649 697.1319,-258.8974"/>
</g>
<!-- 517179926353339293&#45;&gt;4947351087640734691 -->
<g id="edge9" class="edge">
<title>517179926353339293-&gt;4947351087640734691</title>
<path fill="none" stroke="#000000" d="M567.1436,-287.9555C571.5002,-250.3144 581.5844,-163.1867 586.7999,-118.1246"/>
<polygon fill="#000000" stroke="#000000" points="590.2819,-118.4812 587.955,-108.1451 583.3284,-117.6763 590.2819,-118.4812"/>
</g>
<!-- 8313213127749369813 -->
<g id="node7" class="node">
<title>8313213127749369813</title>
<g id="a_node7"><a xlink:href="http://scholar.google.com/scholar?cluster=8313213127749369813&amp;hl=en&amp;as_sdt=0,5&amp;scioq=information+theory" xlink:title="CE Shannon - 1948, ieeexplore.ieee.org - citated by 75638">
<polygon fill="#6cb993" stroke="#6cb993" points="422.1015,-324 172.0087,-324 172.0087,-288 422.1015,-288 422.1015,-324"/>
<text text-anchor="middle" x="297.0551" y="-301.8" font-family="Times,serif" font-size="14.00" fill="#ffffff">A mathematical theory of communication</text>
</a>
</g>
</g>
<!-- 8313213127749369813&#45;&gt;11741766459931279286 -->
<g id="edge5" class="edge">
<title>8313213127749369813-&gt;11741766459931279286</title>
<path fill="none" stroke="#000000" d="M317.9995,-287.8314C328.1242,-279.0485 340.4328,-268.3712 351.4099,-258.8489"/>
<polygon fill="#000000" stroke="#000000" points="353.857,-261.3595 359.1174,-252.1628 349.27,-256.0718 353.857,-261.3595"/>
</g>
<!-- 8313213127749369813&#45;&gt;8002773586739194411 -->
<g id="edge4" class="edge">
<title>8313213127749369813-&gt;8002773586739194411</title>
<path fill="none" stroke="#000000" d="M271.3329,-287.9213C259.7732,-278.496 246.9775,-266.0124 239.0551,-252 228.3458,-233.0583 223.654,-208.7835 221.608,-190.2189"/>
<polygon fill="#000000" stroke="#000000" points="225.073,-189.6745 220.6835,-180.0317 218.1017,-190.3071 225.073,-189.6745"/>
</g>
<!-- 8313213127749369813&#45;&gt;5322157415978095001 -->
<g id="edge6" class="edge">
<title>8313213127749369813-&gt;5322157415978095001</title>
<path fill="none" stroke="#000000" d="M410.9902,-287.9707C476.9647,-277.5308 560.0766,-264.379 627.7384,-253.6721"/>
<polygon fill="#000000" stroke="#000000" points="628.7021,-257.0632 638.0321,-252.0432 627.6079,-250.1493 628.7021,-257.0632"/>
</g>
<!-- 4947351087640734691&#45;&gt;14459559319851391154 -->
<g id="edge12" class="edge">
<title>4947351087640734691-&gt;14459559319851391154</title>
<path fill="none" stroke="#000000" d="M529.0496,-71.9243C495.2523,-61.9103 453.0707,-49.412 417.8289,-38.97"/>
<polygon fill="#000000" stroke="#000000" points="418.668,-35.5683 408.0857,-36.0831 416.6794,-42.2799 418.668,-35.5683"/>
</g>
</g>
</svg>